<svg xmlns="http://www.w3.org/2000/svg" xmlns:xlink="http://www.w3.org/1999/xlink" width="5000" zoomAndPan="magnify" viewBox="0 0 3750 3749.999967" height="5000" preserveAspectRatio="xMidYMid meet" version="1.0"><path fill="#000000" d="M 2902.734375 1710.46875 L 2903.671875 1676.71875 C 2903.671875 1241.71875 2549.53125 887.8125 2114.53125 887.8125 C 1814.0625 887.8125 1539.609375 1061.484375 1407.890625 1327.734375 C 1339.6875 1282.734375 1260 1258.359375 1176.328125 1258.359375 C 954.140625 1258.359375 771.5625 1431.5625 756.796875 1650.234375 C 529.921875 1732.734375 375 1950.46875 375 2194.921875 C 375 2514.609375 635.390625 2775 955.3125 2775 L 2840.859375 2775 C 3135.46875 2775 3375 2535.46875 3375 2240.859375 C 3375 1967.34375 3168.28125 1741.171875 2902.734375 1710.46875 Z M 2902.734375 1710.46875 " fill-opacity="1" fill-rule="nonzero"/><path fill="#ffffff" d="M 1500 1558.59375 C 1351.140625 1558.59375 1230.46875 1679.269531 1230.46875 1828.125 C 1230.46875 1976.984375 1351.140625 2097.65625 1500 2097.65625 C 1648.855469 2097.65625 1769.53125 1976.984375 1769.53125 1828.125 C 1769.53125 1679.269531 1648.855469 1558.59375 1500 1558.59375 Z M 1500 2191.40625 C 1324.21875 2191.40625 1158.984375 2278.113281 1060.546875 2422.253906 C 1040.625 2451.550781 1031.25 2485.539062 1031.25 2520.695312 C 1031.25 2539.445312 1047.65625 2554.6875 1066.40625 2554.6875 L 1933.59375 2554.6875 C 1952.34375 2554.6875 1968.75 2539.445312 1968.75 2520.695312 C 1969.921875 2485.539062 1959.375 2450.378906 1939.453125 2422.253906 C 1841.015625 2278.113281 1675.78125 2191.40625 1500 2191.40625 Z M 1500 2191.40625 " fill-opacity="1" fill-rule="nonzero"/><path fill="#ffffff" d="M 2250 1558.59375 C 2101.140625 1558.59375 1980.46875 1679.269531 1980.46875 1828.125 C 1980.46875 1976.984375 2101.140625 2097.65625 2250 2097.65625 C 2398.855469 2097.65625 2519.53125 1976.984375 2519.53125 1828.125 C 2519.53125 1679.269531 2398.855469 1558.59375 2250 1558.59375 Z M 2250 2191.40625 C 2074.21875 2191.40625 1908.984375 2278.113281 1810.546875 2422.253906 C 1790.625 2451.550781 1781.25 2485.539062 1781.25 2520.695312 C 1781.25 2539.445312 1797.65625 2554.6875 1816.40625 2554.6875 L 2683.59375 2554.6875 C 2702.34375 2554.6875 2718.75 2539.445312 2718.75 2520.695312 C 2719.921875 2485.539062 2709.375 2450.378906 2689.453125 2422.253906 C 2591.015625 2278.113281 2425.78125 2191.40625 2250 2191.40625 Z M 2250 2191.40625 " fill-opacity="1" fill-rule="nonzero"/></svg>