<svg xmlns="http://www.w3.org/2000/svg" xmlns:xlink="http://www.w3.org/1999/xlink" width="5000" zoomAndPan="magnify" viewBox="0 0 3750 3749.999967" height="5000" preserveAspectRatio="xMidYMid meet" version="1.0"><path fill="#004aad" d="M 3159.667969 1669.335938 L 3160.839844 1627.148438 C 3160.839844 1083.398438 2718.164062 641.015625 2174.414062 641.015625 C 1798.828125 641.015625 1455.761719 858.105469 1291.113281 1190.917969 C 1205.859375 1134.667969 1106.25 1104.199219 1001.660156 1104.199219 C 723.925781 1104.199219 495.703125 1320.703125 477.246094 1594.042969 C 193.652344 1697.167969 0 1969.335938 0 2274.902344 C 0 2674.511719 325.488281 3000 725.390625 3000 L 3082.324219 3000 C 3450.585938 3000 3750 2700.585938 3750 2332.324219 C 3750 1990.429688 3491.601562 1707.714844 3159.667969 1669.335938 Z M 3159.667969 1669.335938 " fill-opacity="1" fill-rule="nonzero"/><path fill="#38b6ff" d="M 1406.25 1479.492188 C 1220.179688 1479.492188 1069.335938 1630.335938 1069.335938 1816.40625 C 1069.335938 2002.476562 1220.179688 2153.320312 1406.25 2153.320312 C 1592.320312 2153.320312 1743.164062 2002.476562 1743.164062 1816.40625 C 1743.164062 1630.335938 1592.320312 1479.492188 1406.25 1479.492188 Z M 1406.25 2270.507812 C 1186.523438 2270.507812 979.980469 2378.890625 856.933594 2559.066406 C 832.03125 2595.6875 820.3125 2638.175781 820.3125 2682.121094 C 820.3125 2705.558594 840.820312 2724.609375 864.257812 2724.609375 L 1948.242188 2724.609375 C 1971.679688 2724.609375 1992.1875 2705.558594 1992.1875 2682.121094 C 1993.652344 2638.175781 1980.46875 2594.222656 1955.566406 2559.066406 C 1832.519531 2378.890625 1625.976562 2270.507812 1406.25 2270.507812 Z M 1406.25 2270.507812 " fill-opacity="1" fill-rule="nonzero"/><path fill="#5ce1e6" d="M 2343.75 1479.492188 C 2157.679688 1479.492188 2006.835938 1630.335938 2006.835938 1816.40625 C 2006.835938 2002.476562 2157.679688 2153.320312 2343.75 2153.320312 C 2529.820312 2153.320312 2680.664062 2002.476562 2680.664062 1816.40625 C 2680.664062 1630.335938 2529.820312 1479.492188 2343.75 1479.492188 Z M 2343.75 2270.507812 C 2124.023438 2270.507812 1917.480469 2378.890625 1794.433594 2559.066406 C 1769.53125 2595.6875 1757.8125 2638.175781 1757.8125 2682.121094 C 1757.8125 2705.558594 1778.320312 2724.609375 1801.757812 2724.609375 L 2885.742188 2724.609375 C 2909.179688 2724.609375 2929.6875 2705.558594 2929.6875 2682.121094 C 2931.152344 2638.175781 2917.96875 2594.222656 2893.066406 2559.066406 C 2770.019531 2378.890625 2563.476562 2270.507812 2343.75 2270.507812 Z M 2343.75 2270.507812 " fill-opacity="1" fill-rule="nonzero"/></svg>