<svg xmlns="http://www.w3.org/2000/svg" xmlns:xlink="http://www.w3.org/1999/xlink" width="5000" zoomAndPan="magnify" viewBox="0 0 3750 3749.999967" height="5000" preserveAspectRatio="xMidYMid meet" version="1.0"><defs><radialGradient gradientTransform="matrix(1, 0, 0, 1, 0.00001675, 0.0001)" gradientUnits="userSpaceOnUse" r="2651.650401" cx="1874.999983" id="ec9e9cbb68" cy="1874.999983" fx="1874.999983" fy="1874.999983"><stop stop-opacity="1" stop-color="rgb(0.0244141%, 0.0244141%, 0.164795%)" offset="0"/><stop stop-opacity="1" stop-color="rgb(0.0701904%, 0.0701904%, 0.476074%)" offset="0.03125"/><stop stop-opacity="1" stop-color="rgb(0.114441%, 0.114441%, 0.764465%)" offset="0.0585938"/><stop stop-opacity="1" stop-color="rgb(0.158691%, 0.158691%, 1.054382%)" offset="0.0859375"/><stop stop-opacity="1" stop-color="rgb(0.201416%, 0.201416%, 1.344299%)" offset="0.113281"/><stop stop-opacity="1" stop-color="rgb(0.242615%, 0.242615%, 1.612854%)" offset="0.140625"/><stop stop-opacity="1" stop-color="rgb(0.280762%, 0.280762%, 1.861572%)" offset="0.164062"/><stop stop-opacity="1" stop-color="rgb(0.317383%, 0.317383%, 2.110291%)" offset="0.1875"/><stop stop-opacity="1" stop-color="rgb(0.35553%, 0.35553%, 2.359009%)" offset="0.210938"/><stop stop-opacity="1" stop-color="rgb(0.392151%, 0.392151%, 2.607727%)" offset="0.234375"/><stop stop-opacity="1" stop-color="rgb(0.427246%, 0.427246%, 2.835083%)" offset="0.257812"/><stop stop-opacity="1" stop-color="rgb(0.457764%, 0.457764%, 3.042603%)" offset="0.277344"/><stop stop-opacity="1" stop-color="rgb(0.489807%, 0.489807%, 3.250122%)" offset="0.296875"/><stop stop-opacity="1" stop-color="rgb(0.520325%, 0.520325%, 3.456116%)" offset="0.316406"/><stop stop-opacity="1" stop-color="rgb(0.552368%, 0.552368%, 3.663635%)" offset="0.335938"/><stop stop-opacity="1" stop-color="rgb(0.582886%, 0.582886%, 3.871155%)" offset="0.355469"/><stop stop-opacity="1" stop-color="rgb(0.614929%, 0.614929%, 4.077148%)" offset="0.375"/><stop stop-opacity="1" stop-color="rgb(0.657654%, 0.657654%, 4.367065%)" offset="0.394531"/><stop stop-opacity="1" stop-color="rgb(0.714111%, 0.714111%, 4.73938%)" offset="0.429688"/><stop stop-opacity="1" stop-color="rgb(0.767517%, 0.767517%, 5.091858%)" offset="0.464844"/><stop stop-opacity="1" stop-color="rgb(0.817871%, 0.817871%, 5.422974%)" offset="0.496094"/><stop stop-opacity="1" stop-color="rgb(0.863647%, 0.863647%, 5.734253%)" offset="0.527344"/><stop stop-opacity="1" stop-color="rgb(0.907898%, 0.907898%, 6.02417%)" offset="0.554688"/><stop stop-opacity="1" stop-color="rgb(0.949097%, 0.949097%, 6.292725%)" offset="0.582031"/><stop stop-opacity="1" stop-color="rgb(0.985718%, 0.985718%, 6.541443%)" offset="0.605469"/><stop stop-opacity="1" stop-color="rgb(1.020813%, 1.020813%, 6.768799%)" offset="0.628906"/><stop stop-opacity="1" stop-color="rgb(1.051331%, 1.051331%, 6.976318%)" offset="0.648438"/><stop stop-opacity="1" stop-color="rgb(1.083374%, 1.083374%, 7.182312%)" offset="0.667969"/><stop stop-opacity="1" stop-color="rgb(1.113892%, 1.113892%, 7.389832%)" offset="0.6875"/><stop stop-opacity="1" stop-color="rgb(1.158142%, 1.158142%, 7.679749%)" offset="0.707031"/><stop stop-opacity="1" stop-color="rgb(1.211548%, 1.211548%, 8.030701%)" offset="0.742188"/><stop stop-opacity="1" stop-color="rgb(1.25885%, 1.25885%, 8.34198%)" offset="0.773438"/><stop stop-opacity="1" stop-color="rgb(1.298523%, 1.298523%, 8.610535%)" offset="0.800781"/><stop stop-opacity="1" stop-color="rgb(1.333618%, 1.333618%, 8.839417%)" offset="0.824219"/><stop stop-opacity="1" stop-color="rgb(1.364136%, 1.364136%, 9.046936%)" offset="0.84375"/><stop stop-opacity="1" stop-color="rgb(1.405334%, 1.405334%, 9.315491%)" offset="0.863281"/><stop stop-opacity="1" stop-color="rgb(1.448059%, 1.448059%, 9.605408%)" offset="0.894531"/><stop stop-opacity="1" stop-color="rgb(1.483154%, 1.483154%, 9.832764%)" offset="0.917969"/><stop stop-opacity="1" stop-color="rgb(1.524353%, 1.524353%, 10.101318%)" offset="0.9375"/><stop stop-opacity="1" stop-color="rgb(1.573181%, 1.573181%, 10.432434%)" offset="0.96875"/><stop stop-opacity="1" stop-color="rgb(1.599121%, 1.599121%, 10.598755%)" offset="1"/></radialGradient></defs><rect x="-375" width="4500" fill="#ffffff" y="-374.999997" height="4499.99996" fill-opacity="1"/><rect x="-375" fill="url(#ec9e9cbb68)" width="4500" y="-374.999997" height="4499.99996"/><path fill="#004aad" d="M 3159.667969 1669.335938 L 3160.839844 1627.148438 C 3160.839844 1083.398438 2718.164062 641.015625 2174.414062 641.015625 C 1798.828125 641.015625 1455.761719 858.105469 1291.113281 1190.917969 C 1205.859375 1134.667969 1106.25 1104.199219 1001.660156 1104.199219 C 723.925781 1104.199219 495.703125 1320.703125 477.246094 1594.042969 C 193.652344 1697.167969 0 1969.335938 0 2274.902344 C 0 2674.511719 325.488281 3000 725.390625 3000 L 3082.324219 3000 C 3450.585938 3000 3750 2700.585938 3750 2332.324219 C 3750 1990.429688 3491.601562 1707.714844 3159.667969 1669.335938 Z M 3159.667969 1669.335938 " fill-opacity="1" fill-rule="nonzero"/><path fill="#38b6ff" d="M 1406.25 1479.492188 C 1220.179688 1479.492188 1069.335938 1630.335938 1069.335938 1816.40625 C 1069.335938 2002.476562 1220.179688 2153.320312 1406.25 2153.320312 C 1592.320312 2153.320312 1743.164062 2002.476562 1743.164062 1816.40625 C 1743.164062 1630.335938 1592.320312 1479.492188 1406.25 1479.492188 Z M 1406.25 2270.507812 C 1186.523438 2270.507812 979.980469 2378.890625 856.933594 2559.066406 C 832.03125 2595.6875 820.3125 2638.175781 820.3125 2682.121094 C 820.3125 2705.558594 840.820312 2724.609375 864.257812 2724.609375 L 1948.242188 2724.609375 C 1971.679688 2724.609375 1992.1875 2705.558594 1992.1875 2682.121094 C 1993.652344 2638.175781 1980.46875 2594.222656 1955.566406 2559.066406 C 1832.519531 2378.890625 1625.976562 2270.507812 1406.25 2270.507812 Z M 1406.25 2270.507812 " fill-opacity="1" fill-rule="nonzero"/><path fill="#5ce1e6" d="M 2343.75 1479.492188 C 2157.679688 1479.492188 2006.835938 1630.335938 2006.835938 1816.40625 C 2006.835938 2002.476562 2157.679688 2153.320312 2343.75 2153.320312 C 2529.820312 2153.320312 2680.664062 2002.476562 2680.664062 1816.40625 C 2680.664062 1630.335938 2529.820312 1479.492188 2343.75 1479.492188 Z M 2343.75 2270.507812 C 2124.023438 2270.507812 1917.480469 2378.890625 1794.433594 2559.066406 C 1769.53125 2595.6875 1757.8125 2638.175781 1757.8125 2682.121094 C 1757.8125 2705.558594 1778.320312 2724.609375 1801.757812 2724.609375 L 2885.742188 2724.609375 C 2909.179688 2724.609375 2929.6875 2705.558594 2929.6875 2682.121094 C 2931.152344 2638.175781 2917.96875 2594.222656 2893.066406 2559.066406 C 2770.019531 2378.890625 2563.476562 2270.507812 2343.75 2270.507812 Z M 2343.75 2270.507812 " fill-opacity="1" fill-rule="nonzero"/></svg>