<svg xmlns="http://www.w3.org/2000/svg" xmlns:xlink="http://www.w3.org/1999/xlink" width="5000" zoomAndPan="magnify" viewBox="0 0 3750 3749.999967" height="5000" preserveAspectRatio="xMidYMid meet" version="1.0"><defs><radialGradient gradientTransform="matrix(1, 0, 0, 1, 0.00001675, 0.0001)" gradientUnits="userSpaceOnUse" r="2651.650401" cx="1874.999983" id="473b06058b" cy="1874.999983" fx="1874.999983" fy="1874.999983"><stop stop-opacity="1" stop-color="rgb(0.0244141%, 0.0244141%, 0.164795%)" offset="0"/><stop stop-opacity="1" stop-color="rgb(0.0701904%, 0.0701904%, 0.476074%)" offset="0.03125"/><stop stop-opacity="1" stop-color="rgb(0.114441%, 0.114441%, 0.764465%)" offset="0.0585938"/><stop stop-opacity="1" stop-color="rgb(0.158691%, 0.158691%, 1.054382%)" offset="0.0859375"/><stop stop-opacity="1" stop-color="rgb(0.201416%, 0.201416%, 1.344299%)" offset="0.113281"/><stop stop-opacity="1" stop-color="rgb(0.242615%, 0.242615%, 1.612854%)" offset="0.140625"/><stop stop-opacity="1" stop-color="rgb(0.280762%, 0.280762%, 1.861572%)" offset="0.164062"/><stop stop-opacity="1" stop-color="rgb(0.317383%, 0.317383%, 2.110291%)" offset="0.1875"/><stop stop-opacity="1" stop-color="rgb(0.35553%, 0.35553%, 2.359009%)" offset="0.210938"/><stop stop-opacity="1" stop-color="rgb(0.392151%, 0.392151%, 2.607727%)" offset="0.234375"/><stop stop-opacity="1" stop-color="rgb(0.427246%, 0.427246%, 2.835083%)" offset="0.257812"/><stop stop-opacity="1" stop-color="rgb(0.457764%, 0.457764%, 3.042603%)" offset="0.277344"/><stop stop-opacity="1" stop-color="rgb(0.489807%, 0.489807%, 3.250122%)" offset="0.296875"/><stop stop-opacity="1" stop-color="rgb(0.520325%, 0.520325%, 3.456116%)" offset="0.316406"/><stop stop-opacity="1" stop-color="rgb(0.552368%, 0.552368%, 3.663635%)" offset="0.335938"/><stop stop-opacity="1" stop-color="rgb(0.582886%, 0.582886%, 3.871155%)" offset="0.355469"/><stop stop-opacity="1" stop-color="rgb(0.614929%, 0.614929%, 4.077148%)" offset="0.375"/><stop stop-opacity="1" stop-color="rgb(0.657654%, 0.657654%, 4.367065%)" offset="0.394531"/><stop stop-opacity="1" stop-color="rgb(0.714111%, 0.714111%, 4.73938%)" offset="0.429688"/><stop stop-opacity="1" stop-color="rgb(0.767517%, 0.767517%, 5.091858%)" offset="0.464844"/><stop stop-opacity="1" stop-color="rgb(0.817871%, 0.817871%, 5.422974%)" offset="0.496094"/><stop stop-opacity="1" stop-color="rgb(0.863647%, 0.863647%, 5.734253%)" offset="0.527344"/><stop stop-opacity="1" stop-color="rgb(0.907898%, 0.907898%, 6.02417%)" offset="0.554688"/><stop stop-opacity="1" stop-color="rgb(0.949097%, 0.949097%, 6.292725%)" offset="0.582031"/><stop stop-opacity="1" stop-color="rgb(0.985718%, 0.985718%, 6.541443%)" offset="0.605469"/><stop stop-opacity="1" stop-color="rgb(1.020813%, 1.020813%, 6.768799%)" offset="0.628906"/><stop stop-opacity="1" stop-color="rgb(1.051331%, 1.051331%, 6.976318%)" offset="0.648438"/><stop stop-opacity="1" stop-color="rgb(1.083374%, 1.083374%, 7.182312%)" offset="0.667969"/><stop stop-opacity="1" stop-color="rgb(1.113892%, 1.113892%, 7.389832%)" offset="0.6875"/><stop stop-opacity="1" stop-color="rgb(1.158142%, 1.158142%, 7.679749%)" offset="0.707031"/><stop stop-opacity="1" stop-color="rgb(1.211548%, 1.211548%, 8.030701%)" offset="0.742188"/><stop stop-opacity="1" stop-color="rgb(1.25885%, 1.25885%, 8.34198%)" offset="0.773438"/><stop stop-opacity="1" stop-color="rgb(1.298523%, 1.298523%, 8.610535%)" offset="0.800781"/><stop stop-opacity="1" stop-color="rgb(1.333618%, 1.333618%, 8.839417%)" offset="0.824219"/><stop stop-opacity="1" stop-color="rgb(1.364136%, 1.364136%, 9.046936%)" offset="0.84375"/><stop stop-opacity="1" stop-color="rgb(1.405334%, 1.405334%, 9.315491%)" offset="0.863281"/><stop stop-opacity="1" stop-color="rgb(1.448059%, 1.448059%, 9.605408%)" offset="0.894531"/><stop stop-opacity="1" stop-color="rgb(1.483154%, 1.483154%, 9.832764%)" offset="0.917969"/><stop stop-opacity="1" stop-color="rgb(1.524353%, 1.524353%, 10.101318%)" offset="0.9375"/><stop stop-opacity="1" stop-color="rgb(1.573181%, 1.573181%, 10.432434%)" offset="0.96875"/><stop stop-opacity="1" stop-color="rgb(1.599121%, 1.599121%, 10.598755%)" offset="1"/></radialGradient></defs><rect x="-375" width="4500" fill="#ffffff" y="-374.999997" height="4499.99996" fill-opacity="1"/><rect x="-375" fill="url(#473b06058b)" width="4500" y="-374.999997" height="4499.99996"/><path fill="#004aad" d="M 2902.734375 1710.46875 L 2903.671875 1676.71875 C 2903.671875 1241.71875 2549.53125 887.8125 2114.53125 887.8125 C 1814.0625 887.8125 1539.609375 1061.484375 1407.890625 1327.734375 C 1339.6875 1282.734375 1260 1258.359375 1176.328125 1258.359375 C 954.140625 1258.359375 771.5625 1431.5625 756.796875 1650.234375 C 529.921875 1732.734375 375 1950.46875 375 2194.921875 C 375 2514.609375 635.390625 2775 955.3125 2775 L 2840.859375 2775 C 3135.46875 2775 3375 2535.46875 3375 2240.859375 C 3375 1967.34375 3168.28125 1741.171875 2902.734375 1710.46875 Z M 2902.734375 1710.46875 " fill-opacity="1" fill-rule="nonzero"/><path fill="#38b6ff" d="M 1500 1558.59375 C 1351.140625 1558.59375 1230.46875 1679.269531 1230.46875 1828.125 C 1230.46875 1976.984375 1351.140625 2097.65625 1500 2097.65625 C 1648.855469 2097.65625 1769.53125 1976.984375 1769.53125 1828.125 C 1769.53125 1679.269531 1648.855469 1558.59375 1500 1558.59375 Z M 1500 2191.40625 C 1324.21875 2191.40625 1158.984375 2278.113281 1060.546875 2422.253906 C 1040.625 2451.550781 1031.25 2485.539062 1031.25 2520.695312 C 1031.25 2539.445312 1047.65625 2554.6875 1066.40625 2554.6875 L 1933.59375 2554.6875 C 1952.34375 2554.6875 1968.75 2539.445312 1968.75 2520.695312 C 1969.921875 2485.539062 1959.375 2450.378906 1939.453125 2422.253906 C 1841.015625 2278.113281 1675.78125 2191.40625 1500 2191.40625 Z M 1500 2191.40625 " fill-opacity="1" fill-rule="nonzero"/><path fill="#5ce1e6" d="M 2250 1558.59375 C 2101.140625 1558.59375 1980.46875 1679.269531 1980.46875 1828.125 C 1980.46875 1976.984375 2101.140625 2097.65625 2250 2097.65625 C 2398.855469 2097.65625 2519.53125 1976.984375 2519.53125 1828.125 C 2519.53125 1679.269531 2398.855469 1558.59375 2250 1558.59375 Z M 2250 2191.40625 C 2074.21875 2191.40625 1908.984375 2278.113281 1810.546875 2422.253906 C 1790.625 2451.550781 1781.25 2485.539062 1781.25 2520.695312 C 1781.25 2539.445312 1797.65625 2554.6875 1816.40625 2554.6875 L 2683.59375 2554.6875 C 2702.34375 2554.6875 2718.75 2539.445312 2718.75 2520.695312 C 2719.921875 2485.539062 2709.375 2450.378906 2689.453125 2422.253906 C 2591.015625 2278.113281 2425.78125 2191.40625 2250 2191.40625 Z M 2250 2191.40625 " fill-opacity="1" fill-rule="nonzero"/></svg>